<svg height="512pt" viewBox="0 -45 512.00027 512" width="512pt" xmlns="http://www.w3.org/2000/svg"><path d="m461.152344 132.742188c-20.140625 3.886718-32.089844 29.71875-32.089844 29.71875s20.703125 19.53125 40.847656 15.640624c20.140625-3.886718 32.089844-29.71875 32.089844-29.71875s-20.707031-19.527343-40.847656-15.640624zm0 0" fill="#91d9b9"/><path d="m420.457031 217.945312c-22.992187-2.425781-44.363281 21.496094-44.363281 21.496094s15.902344 27.855469 38.894531 30.285156c22.992188 2.425782 44.363281-21.496093 44.363281-21.496093s-15.90625-27.859375-38.894531-30.285157zm0 0" fill="#78d0a9"/><path d="m398.136719 58.191406c3.296875 24.5625 33.632812 40.765625 33.632812 40.765625s24.988281-23.628906 21.691407-48.191406c-3.300782-24.566406-33.632813-40.765625-33.632813-40.765625s-24.988281 23.628906-21.691406 48.191406zm0 0" fill="#78d0a9"/><path d="m114.355469 411.292969h-104.355469l30.652344-53.820313-30.652344-53.820312h104.355469zm0 0" fill="#f5737f"/><path d="m397.644531 303.652344h104.355469l-30.648438 53.820312 30.648438 53.820313h-104.355469zm0 0" fill="#f8a2aa"/><path d="m114.355469 303.652344h283.289062v107.640625h-283.289062zm0 0" fill="#ffd89e"/><path d="m192.675781 127.101562c3.148438 0 7.199219-.898437 11.25-3.597656l13.050781-8.101562v188.25h70.199219v-245.398438c0-13.5-16.652343-22.050781-31.050781-22.050781-4.949219 0-9.449219.898437-13.050781 3.148437l-59.398438 36c-9 5.402344-13.050781 14.402344-13.050781 23.851563 0 13.949219 9 27.898437 22.050781 27.898437zm0 0" fill="#ffcb7c"/><path d="m50.847656 132.742188c20.140625 3.886718 32.089844 29.71875 32.089844 29.71875s-20.703125 19.53125-40.84375 15.640624c-20.144531-3.886718-32.09375-29.71875-32.09375-29.71875s20.707031-19.527343 40.847656-15.640624zm0 0" fill="#91d9b9"/><path d="m91.546875 217.945312c22.988281-2.425781 44.363281 21.496094 44.363281 21.496094s-15.90625 27.855469-38.898437 30.285156c-22.992188 2.425782-44.363281-21.496093-44.363281-21.496093s15.90625-27.859375 38.898437-30.285157zm0 0" fill="#78d0a9"/><path d="m113.863281 58.191406c-3.296875 24.5625-33.632812 40.765625-33.632812 40.765625s-24.988281-23.628906-21.6875-48.191406c3.296875-24.566406 33.632812-40.765625 33.632812-40.765625s24.988281 23.628906 21.6875 48.191406zm0 0" fill="#78d0a9"/><path d="m258.179688 367.476562c-4.191407 0-7.984376-2.710937-9.40625-6.636718-1.402344-3.859375-.207032-8.347656 2.9375-10.992188 3.289062-2.765625 8.089843-3.140625 11.746093-.867187 3.492188 2.167969 5.335938 6.414062 4.523438 10.445312-.929688 4.613281-5.082031 8.050781-9.800781 8.050781zm0 0"/><path d="m40.199219 187.921875c2.507812.484375 4.992187.703125 7.4375.703125 12.941406 0 24.792969-6.101562 32.65625-11.410156 3.148437 7.792968 6.921875 15.433594 11.292969 22.808594 1.578124 2.660156 3.214843 5.253906 4.914062 7.78125-1.976562-.078126-3.980469-.019532-6.003906.195312-27.769532 2.933594-45.777344 33.953125-46.53125 35.273438-2.132813 3.734374-1.636719 8.414062 1.226562 11.617187.960938 1.074219 22.652344 25.003906 48.554688 25.003906 1.425781 0 2.867187-.074219 4.316406-.226562 20.378906-2.152344 35.503906-19.4375 42.40625-29 9.929688 6.027343 20.417969 10.460937 31.164062 13.0625.789063.191406 1.582032.28125 2.359376.28125 4.511718 0 8.605468-3.074219 9.710937-7.652344 1.296875-5.367187-2-10.769531-7.367187-12.070313-26.15625-6.324218-50.777344-26.175781-67.546876-54.460937-15.972656-26.941406-22.847656-57.695313-19.074218-84.910156 9.714844-6.261719 30.972656-22.410157 34.058594-45.394531 3.933593-29.308594-23.558594-55.683594-24.730469-56.789063-3.125-2.953125-7.789063-3.578125-11.582031-1.554687-1.421876.757812-34.898438 18.949218-38.832032 48.253906-3.132812 23.328125 13.652344 44.804687 21.21875 53.148437-1.203125 8.925781-1.4375 18.15625-.746094 27.488281-4.742187-3.324218-10.199218-5.957031-16.359374-7.148437-24.460938-4.726563-47.101563 15.828125-49.601563 18.1875-3.1289062 2.949219-4.019531 7.570313-2.214844 11.472656 1.441407 3.121094 14.804688 30.617188 39.273438 35.339844zm55.761719 71.859375c-10.984376 1.15625-22.949219-6.632812-30.320313-12.921875 5.898437-7.695313 15.972656-17.808594 26.957031-18.96875 10.976563-1.15625 22.921875 6.613281 30.292969 12.894531-5.402344 7.089844-15.347656 17.773438-26.929687 18.996094zm-27.507813-207.6875c1.640625-12.234375 13.40625-23.09375 21.988281-29.191406 6.675782 8.15625 15.152344 21.726562 13.511719 33.957031-1.640625 12.21875-13.375 23.0625-21.953125 29.171875-6.101562-7.425781-15.28125-21.023438-13.546875-33.9375zm-19.5 90.464844c8.867187 1.710937 16.484375 10.460937 21.070313 17.402344-6.796876 4.691406-17.191407 10.023437-26.035157 8.324218-8.871093-1.714844-16.488281-10.464844-21.074219-17.40625 6.847657-4.742187 17.167969-10.035156 26.039063-8.320312zm0 0"/><path d="m338.007812 264.011719c.777344 0 1.570313-.089844 2.359376-.28125 10.746093-2.601563 21.234374-7.035157 31.164062-13.0625 6.902344 9.5625 22.027344 26.847656 42.40625 29 1.449219.152343 2.890625.226562 4.316406.226562 25.902344 0 47.59375-23.929687 48.554688-25.003906 2.863281-3.203125 3.359375-7.882813 1.226562-11.617187-.753906-1.320313-18.765625-32.339844-46.53125-35.273438-2.023437-.210938-4.027344-.269531-6.007812-.191406 1.699218-2.527344 3.339844-5.125 4.917968-7.785156 4.371094-7.375 8.144532-15.015626 11.292969-22.808594 7.863281 5.308594 19.714844 11.410156 32.65625 11.410156 2.445313 0 4.933594-.21875 7.4375-.703125 24.46875-4.722656 37.832031-32.21875 39.273438-35.339844 1.808593-3.902343.914062-8.519531-2.210938-11.472656-2.503906-2.355469-25.140625-22.917969-49.605469-18.1875-6.164062 1.191406-11.621093 3.824219-16.359374 7.148437.691406-9.335937.453124-18.5625-.75-27.488281 7.566406-8.347656 24.351562-29.820312 21.222656-53.148437-3.933594-29.308594-37.414063-47.496094-38.835938-48.253906-3.792968-2.023438-8.457031-1.398438-11.582031 1.554687-1.171875 1.105469-28.664063 27.480469-24.730469 56.789063 3.085938 22.984374 24.347656 39.128906 34.058594 45.390624 3.773438 27.21875-3.101562 57.96875-19.074219 84.910157-16.769531 28.289062-41.386719 48.136719-67.542969 54.464843-5.367187 1.300782-8.667968 6.703126-7.371093 12.070313 1.109375 4.578125 5.203125 7.652344 9.714843 7.652344zm125.039063-121.453125c8.871094-1.710938 19.195313 3.574218 26.035156 8.316406-4.566406 6.878906-12.226562 15.703125-21.070312 17.410156-8.867188 1.710938-19.195313-3.574218-26.035157-8.3125 4.566407-6.882812 12.226563-15.707031 21.070313-17.414062zm-43.640625 85.332031c10.988281 1.160156 21.058594 11.277344 26.953125 18.964844-7.375 6.296875-19.34375 14.082031-30.320313 12.925781-10.988281-1.160156-21.0625-11.28125-26.957031-18.96875 7.375-6.296875 19.339844-14.082031 30.324219-12.921875zm-11.359375-171.03125c-1.640625-12.234375 6.839844-25.808594 13.511719-33.957031 8.589844 6.105468 20.347656 16.960937 21.992187 29.191406 1.640625 12.21875-6.816406 25.773438-13.484375 33.925781-7.839844-5.550781-20.285156-16.246093-22.019531-29.160156zm0 0"/><path d="m510.644531 298.628906c-1.789062-3.082031-5.082031-4.976562-8.644531-4.976562h-204.824219v-235.398438c0-19.796875-21.308593-32.050781-41.050781-32.050781-7.1875 0-13.339844 1.558594-18.285156 4.628906l-59.308594 35.945313c-11.378906 6.828125-17.90625 18.644531-17.90625 32.425781 0 18.226563 12.253906 37.898437 32.050781 37.898437 3.53125 0 8.695313-.695312 14.300781-3.765624v160.316406h-196.976562c-3.5625 0-6.855469 1.894531-8.644531 4.976562-1.789063 3.078125-1.808594 6.878906-.046875 9.972656l27.832031 48.871094-27.828125 48.871094c-1.765625 3.09375-1.746094 6.894531.042969 9.972656 1.789062 3.082032 5.085937 4.976563 8.644531 4.976563h492c3.5625 0 6.855469-1.894531 8.644531-4.976563 1.789063-3.078125 1.808594-6.878906.046875-9.972656l-27.832031-48.871094 27.832031-48.871094c1.761719-3.09375 1.742188-6.894531-.046875-9.972656zm-288.808593-191.964844c-3.171876-1.765624-7.050782-1.671874-10.136719.242188l-13.046875 8.101562c-.09375.058594-.183594.113282-.273438.175782-2.507812 1.671875-4.648437 1.921875-5.703125 1.921875-6.898437 0-12.050781-9.453125-12.050781-17.902344 0-4.722656 1.421875-11.210937 8.234375-15.296875l59.398437-36c.039063-.023438.078126-.046875.117188-.074219 1.703125-1.0625 4.382812-1.628906 7.746094-1.628906 10.625 0 21.050781 5.96875 21.050781 12.050781v235.398438h-50.199219v-178.25c0-3.628906-1.964844-6.972656-5.136718-8.738282zm-172.496094 255.757813c1.746094-3.066406 1.746094-6.828125 0-9.898437l-22.136719-38.871094h77.152344v87.640625h-77.152344zm75.015625 5.050781h88.785156c5.519531 0 10-4.476562 10-10 0-5.523437-4.480469-10-10-10h-88.785156v-33.820312h263.289062v33.820312h-84.058593c-5.523438 0-10 4.476563-10 10 0 5.523438 4.476562 10 10 10h84.058593v33.820313h-263.289062zm338.304687-14.949218c-1.746094 3.070312-1.746094 6.832031 0 9.898437l22.136719 38.871094h-77.152344v-87.640625h77.152344zm0 0"/></svg>